<svg width="18" height="18" viewBox="0 0 18 18" fill="none" xmlns="http://www.w3.org/2000/svg">
<path d="M9.79547 8.99998L14.4602 4.33522C14.5656 4.22971 14.6248 4.08668 14.6247 3.93756C14.6247 3.78844 14.5654 3.64544 14.46 3.53999C14.3545 3.43455 14.2115 3.37529 14.0624 3.37524C13.9133 3.3752 13.7703 3.43437 13.6648 3.53974L8.99999 8.2045L4.33523 3.53974C4.22972 3.43437 4.08669 3.3752 3.93757 3.37524C3.78845 3.37529 3.64545 3.43455 3.54 3.53999C3.43456 3.64544 3.3753 3.78844 3.37525 3.93756C3.37521 4.08668 3.43438 4.22971 3.53975 4.33522L8.20452 8.99998L3.53975 13.6647C3.48747 13.717 3.44599 13.779 3.41767 13.8472C3.38936 13.9155 3.37478 13.9887 3.37476 14.0626C3.37473 14.1365 3.38927 14.2096 3.41754 14.2779C3.44581 14.3462 3.48725 14.4082 3.5395 14.4605C3.59176 14.5127 3.65379 14.5542 3.72207 14.5824C3.79035 14.6107 3.86352 14.6252 3.93742 14.6252C4.01132 14.6252 4.08449 14.6106 4.15274 14.5823C4.221 14.554 4.28301 14.5125 4.33523 14.4602L8.99999 9.79546L13.6648 14.4602C13.7703 14.5656 13.9133 14.6248 14.0624 14.6247C14.2115 14.6247 14.3545 14.5654 14.46 14.46C14.5654 14.3545 14.6247 14.2115 14.6247 14.0624C14.6248 13.9133 14.5656 13.7703 14.4602 13.6647L9.79547 8.99998Z" fill="#061C3D"/>
</svg>
